<svg width="85" height="17" viewBox="0 0 85 17" fill="none" xmlns="http://www.w3.org/2000/svg">
<path d="M6.64 2C7.85333 2 8.90667 2.2 9.8 2.6C10.7067 3 11.4 3.57333 11.88 4.32C12.36 5.06667 12.6 5.95333 12.6 6.98C12.6 7.99333 12.36 8.88 11.88 9.64C11.4 10.3867 10.7067 10.96 9.8 11.36C8.90667 11.76 7.85333 11.96 6.64 11.96H3.48V16H0.88V2H6.64ZM6.52 9.76C7.65333 9.76 8.51333 9.52 9.1 9.04C9.68667 8.56 9.98 7.87333 9.98 6.98C9.98 6.08667 9.68667 5.4 9.1 4.92C8.51333 4.44 7.65333 4.2 6.52 4.2H3.48V9.76H6.52ZM15.1517 1.16H17.6517V16H15.1517V1.16ZM31.273 5.32V16H28.893V14.64C28.493 15.12 27.993 15.4933 27.393 15.76C26.793 16.0133 26.1463 16.14 25.453 16.14C24.0263 16.14 22.8996 15.7467 22.073 14.96C21.2596 14.16 20.853 12.98 20.853 11.42V5.32H23.353V11.08C23.353 12.04 23.5663 12.76 23.993 13.24C24.433 13.7067 25.053 13.94 25.853 13.94C26.7463 13.94 27.453 13.6667 27.973 13.12C28.5063 12.56 28.773 11.76 28.773 10.72V5.32H31.273ZM48.0263 5.2C49.3729 5.2 50.4396 5.59333 51.2263 6.38C52.0129 7.15333 52.4063 8.32 52.4063 9.88V16H49.9063V10.2C49.9063 9.26667 49.6996 8.56667 49.2863 8.1C48.8729 7.62 48.2796 7.38 47.5063 7.38C46.6663 7.38 45.9929 7.66 45.4863 8.22C44.9796 8.76667 44.7263 9.55333 44.7263 10.58V16H42.2263V10.2C42.2263 9.26667 42.0196 8.56667 41.6063 8.1C41.1929 7.62 40.5996 7.38 39.8263 7.38C38.9729 7.38 38.2929 7.65333 37.7863 8.2C37.2929 8.74667 37.0463 9.54 37.0463 10.58V16H34.5463V5.32H36.9263V6.68C37.3263 6.2 37.8263 5.83333 38.4263 5.58C39.0263 5.32667 39.6929 5.2 40.4263 5.2C41.2263 5.2 41.9329 5.35333 42.5463 5.66C43.1729 5.95333 43.6663 6.39333 44.0263 6.98C44.4663 6.42 45.0329 5.98667 45.7263 5.68C46.4196 5.36 47.1863 5.2 48.0263 5.2ZM61.5209 5.2C62.5609 5.2 63.4876 5.42667 64.3009 5.88C65.1276 6.33333 65.7743 6.97333 66.2409 7.8C66.7076 8.62667 66.9409 9.58 66.9409 10.66C66.9409 11.74 66.7076 12.7 66.2409 13.54C65.7743 14.3667 65.1276 15.0067 64.3009 15.46C63.4876 15.9133 62.5609 16.14 61.5209 16.14C60.7876 16.14 60.1143 16.0133 59.5009 15.76C58.9009 15.5067 58.3943 15.1267 57.9809 14.62V16H55.6009V1.16H58.1009V6.62C58.5276 6.15333 59.0276 5.8 59.6009 5.56C60.1876 5.32 60.8276 5.2 61.5209 5.2ZM61.2409 14C62.1609 14 62.9143 13.6933 63.5009 13.08C64.1009 12.4667 64.4009 11.66 64.4009 10.66C64.4009 9.66 64.1009 8.85333 63.5009 8.24C62.9143 7.62667 62.1609 7.32 61.2409 7.32C60.6409 7.32 60.1009 7.46 59.6209 7.74C59.1409 8.00667 58.7609 8.39333 58.4809 8.9C58.2009 9.40667 58.0609 9.99333 58.0609 10.66C58.0609 11.3267 58.2009 11.9133 58.4809 12.42C58.7609 12.9267 59.1409 13.32 59.6209 13.6C60.1009 13.8667 60.6409 14 61.2409 14ZM69.3119 5.32H71.8119V16H69.3119V5.32ZM70.5719 3.56C70.1185 3.56 69.7385 3.42 69.4319 3.14C69.1252 2.84667 68.9719 2.48667 68.9719 2.06C68.9719 1.63333 69.1252 1.28 69.4319 0.999999C69.7385 0.706666 70.1185 0.56 70.5719 0.56C71.0252 0.56 71.4052 0.699999 71.7119 0.979999C72.0185 1.24667 72.1719 1.58667 72.1719 2C72.1719 2.44 72.0185 2.81333 71.7119 3.12C71.4185 3.41333 71.0385 3.56 70.5719 3.56ZM79.1731 5.2C80.7465 5.2 81.9465 5.58 82.7731 6.34C83.6131 7.08667 84.0331 8.22 84.0331 9.74V16H81.6731V14.7C81.3665 15.1667 80.9265 15.5267 80.3531 15.78C79.7931 16.02 79.1131 16.14 78.3131 16.14C77.5131 16.14 76.8131 16.0067 76.2131 15.74C75.6131 15.46 75.1465 15.08 74.8131 14.6C74.4931 14.1067 74.3331 13.5533 74.3331 12.94C74.3331 11.98 74.6865 11.2133 75.3931 10.64C76.1131 10.0533 77.2398 9.76 78.7731 9.76H81.5331V9.6C81.5331 8.85333 81.3065 8.28 80.8531 7.88C80.4131 7.48 79.7531 7.28 78.8731 7.28C78.2731 7.28 77.6798 7.37333 77.0931 7.56C76.5198 7.74667 76.0331 8.00667 75.6331 8.34L74.6531 6.52C75.2131 6.09333 75.8865 5.76667 76.6731 5.54C77.4598 5.31333 78.2931 5.2 79.1731 5.2ZM78.8331 14.32C79.4598 14.32 80.0131 14.18 80.4931 13.9C80.9865 13.6067 81.3331 13.1933 81.5331 12.66V11.42H78.9531C77.5131 11.42 76.7931 11.8933 76.7931 12.84C76.7931 13.2933 76.9731 13.6533 77.3331 13.92C77.6931 14.1867 78.1931 14.32 78.8331 14.32Z" fill="black"/>
</svg>
