<svg width="106" height="21" viewBox="0 0 106 21" fill="none" xmlns="http://www.w3.org/2000/svg">
<path d="M7.65064 2.31558C9.18329 2.31558 10.5138 2.56821 11.6423 3.07348C12.7875 3.57875 13.6633 4.30297 14.2697 5.24614C14.876 6.18931 15.1792 7.30932 15.1792 8.60618C15.1792 9.88619 14.876 11.0062 14.2697 11.9662C13.6633 12.9094 12.7875 13.6336 11.6423 14.1389C10.5138 14.6441 9.18329 14.8968 7.65064 14.8968H3.65901V20H0.374765V2.31558H7.65064ZM7.49906 12.1178C8.93066 12.1178 10.017 11.8146 10.758 11.2083C11.4991 10.602 11.8696 9.73461 11.8696 8.60618C11.8696 7.47775 11.4991 6.61037 10.758 6.00404C10.017 5.39772 8.93066 5.09456 7.49906 5.09456H3.65901V12.1178H7.49906ZM18.4024 1.25451H21.5603V20H18.4024V1.25451ZM38.7663 6.50931V20H35.76V18.2821C35.2547 18.8884 34.6231 19.36 33.8652 19.6968C33.1073 20.0168 32.2905 20.1768 31.4147 20.1768C29.6125 20.1768 28.1894 19.68 27.1452 18.6863C26.1178 17.6758 25.6041 16.1852 25.6041 14.2147V6.50931H28.762V13.7852C28.762 14.9978 29.0315 15.9073 29.5704 16.5136C30.1262 17.1031 30.9094 17.3979 31.9199 17.3979C33.0484 17.3979 33.941 17.0526 34.5979 16.3621C35.2716 15.6547 35.6084 14.6441 35.6084 13.3304V6.50931H38.7663ZM59.9286 6.35773C61.6297 6.35773 62.9771 6.85458 63.9708 7.84828C64.9645 8.82513 65.4613 10.2988 65.4613 12.2694V20H62.3034V12.6736C62.3034 11.4946 62.0423 10.6104 61.5202 10.0209C60.9981 9.41461 60.2486 9.11145 59.2718 9.11145C58.2107 9.11145 57.3602 9.46514 56.7202 10.1725C56.0802 10.863 55.7602 11.8567 55.7602 13.1536V20H52.6022V12.6736C52.6022 11.4946 52.3412 10.6104 51.8191 10.0209C51.2969 9.41461 50.5475 9.11145 49.5706 9.11145C48.4927 9.11145 47.6337 9.45672 46.9937 10.1473C46.3706 10.8378 46.059 11.8399 46.059 13.1536V20H42.9011V6.50931H45.9074V8.22723C46.4127 7.6209 47.0443 7.15774 47.8022 6.83774C48.5601 6.51773 49.4022 6.35773 50.3285 6.35773C51.3391 6.35773 52.2317 6.55142 53.0064 6.93879C53.798 7.30932 54.4212 7.86512 54.8759 8.60618C55.4317 7.8988 56.1475 7.35143 57.0233 6.96405C57.8991 6.55984 58.8676 6.35773 59.9286 6.35773ZM76.9748 6.35773C78.2885 6.35773 79.459 6.64405 80.4864 7.21669C81.5306 7.78933 82.3475 8.59776 82.9369 9.64198C83.5264 10.6862 83.8212 11.8904 83.8212 13.2547C83.8212 14.6189 83.5264 15.8315 82.9369 16.8926C82.3475 17.9368 81.5306 18.7452 80.4864 19.3179C79.459 19.8905 78.2885 20.1768 76.9748 20.1768C76.0484 20.1768 75.1979 20.0168 74.4231 19.6968C73.6652 19.3768 73.0252 18.8968 72.5031 18.2568V20H69.4968V1.25451H72.6547V8.15144C73.1937 7.56196 73.8252 7.11564 74.5495 6.81247C75.2905 6.50931 76.099 6.35773 76.9748 6.35773ZM76.6211 17.4737C77.7832 17.4737 78.7348 17.0863 79.4758 16.3115C80.2337 15.5368 80.6127 14.5178 80.6127 13.2547C80.6127 11.9915 80.2337 10.9725 79.4758 10.1978C78.7348 9.42303 77.7832 9.03566 76.6211 9.03566C75.8632 9.03566 75.1811 9.2125 74.5747 9.56619C73.9684 9.90304 73.4884 10.3915 73.1347 11.0315C72.781 11.6715 72.6042 12.4125 72.6042 13.2547C72.6042 14.0968 72.781 14.8378 73.1347 15.4778C73.4884 16.1178 73.9684 16.6147 74.5747 16.9684C75.1811 17.3052 75.8632 17.4737 76.6211 17.4737ZM86.8161 6.50931H89.974V20H86.8161V6.50931ZM88.4077 4.28613C87.835 4.28613 87.355 4.10928 86.9676 3.7556C86.5803 3.38507 86.3866 2.93032 86.3866 2.39137C86.3866 1.85242 86.5803 1.40609 86.9676 1.0524C87.355 0.681875 87.835 0.49661 88.4077 0.49661C88.9803 0.49661 89.4603 0.673454 89.8477 1.02714C90.235 1.36399 90.4287 1.79347 90.4287 2.31558C90.4287 2.87137 90.235 3.34296 89.8477 3.73033C89.4771 4.10086 88.9971 4.28613 88.4077 4.28613ZM99.2725 6.35773C101.26 6.35773 102.776 6.83774 103.82 7.79775C104.881 8.74092 105.412 10.1725 105.412 12.0925V20H102.43V18.3579C102.043 18.9474 101.487 19.4021 100.763 19.7221C100.056 20.0253 99.1967 20.1768 98.1862 20.1768C97.1757 20.1768 96.2914 20.0084 95.5335 19.6716C94.7756 19.3179 94.1861 18.8379 93.7651 18.2316C93.3609 17.6084 93.1588 16.9094 93.1588 16.1347C93.1588 14.922 93.6051 13.9536 94.4977 13.2294C95.4072 12.4883 96.8304 12.1178 98.7673 12.1178H102.254V11.9157C102.254 10.9725 101.967 10.2483 101.395 9.74304C100.839 9.23777 100.005 8.98513 98.8936 8.98513C98.1357 8.98513 97.3862 9.10303 96.6451 9.33882C95.9209 9.57461 95.3062 9.90304 94.8009 10.3241L93.563 8.02512C94.2704 7.48617 95.1209 7.07353 96.1146 6.78721C97.1083 6.50089 98.1609 6.35773 99.2725 6.35773ZM98.843 17.8779C99.6346 17.8779 100.334 17.701 100.94 17.3473C101.563 16.9768 102.001 16.4547 102.254 15.781V14.2147H98.9946C97.1757 14.2147 96.2662 14.8126 96.2662 16.0084C96.2662 16.581 96.4935 17.0358 96.9483 17.3726C97.403 17.7094 98.0346 17.8779 98.843 17.8779Z" fill="black"/>
</svg>
